<svg width="12" height="11" viewBox="0 0 12 11" fill="none" xmlns="http://www.w3.org/2000/svg">
<path fill-rule="evenodd" clip-rule="evenodd" d="M6.205 0.80456C6.33627 0.67333 6.51429 0.599609 6.6999 0.599609C6.88552 0.599609 7.06353 0.67333 7.1948 0.80456L11.3948 5.00456C11.526 5.13583 11.5998 5.31384 11.5998 5.49946C11.5998 5.68507 11.526 5.86309 11.3948 5.99436L7.1948 10.1944C7.06278 10.3219 6.88596 10.3924 6.70242 10.3908C6.51888 10.3892 6.34332 10.3156 6.21353 10.1858C6.08374 10.056 6.01013 9.88048 6.00853 9.69694C6.00694 9.5134 6.07749 9.33658 6.205 9.20456L9.2101 6.19946H1.0999C0.914251 6.19946 0.736203 6.12571 0.604928 5.99443C0.473652 5.86316 0.399902 5.68511 0.399902 5.49946C0.399902 5.31381 0.473652 5.13576 0.604928 5.00449C0.736203 4.87321 0.914251 4.79946 1.0999 4.79946H9.2101L6.205 1.79436C6.07377 1.66309 6.00005 1.48507 6.00005 1.29946C6.00005 1.11384 6.07377 0.935829 6.205 0.80456Z" fill="gray"/>
</svg>
